<svg width="282.568" height="99.415" viewBox="0 0 282.568 99.415" xmlns="http://www.w3.org/2000/svg"><g id="svgGroup" stroke-linecap="round" fill-rule="evenodd" font-size="9pt" stroke="#ffffff" stroke-width="0.25mm" fill="#ffffff" style="stroke:#ffffff;stroke-width:0.25mm;fill:#ffffff"><path d="M 57.867 71.571 A 4.437 4.437 0 0 0 59.082 71.729 Q 61.23 71.729 62.622 69.727 A 19.005 19.005 0 0 0 63.607 68.146 A 22.633 22.633 0 0 0 64.99 65.161 A 52.324 52.324 0 0 1 65.445 64.007 Q 66.184 62.197 66.895 60.889 A 993.014 993.014 0 0 0 68.488 58.362 A 1337.861 1337.861 0 0 0 70.239 55.567 A 43.338 43.338 0 0 1 70.5 55.155 A 47.21 47.21 0 0 1 74.463 49.854 A 25.886 25.886 0 0 1 75.413 48.782 A 22.276 22.276 0 0 1 79.492 45.337 A 12.396 12.396 0 0 1 80.804 44.589 A 9.679 9.679 0 0 1 85.107 43.555 Q 86.816 43.555 86.816 45.362 Q 86.816 46.094 86.523 46.802 A 8.855 8.855 0 0 1 86.182 47.528 A 11.683 11.683 0 0 1 85.742 48.291 A 72.535 72.535 0 0 1 85.499 48.69 Q 84.636 50.092 83.609 51.621 A 121.739 121.739 0 0 1 81.372 54.834 A 72.588 72.588 0 0 0 80.741 55.726 A 65.491 65.491 0 0 0 76.855 62.012 A 21.375 21.375 0 0 0 76.506 62.686 Q 75.787 64.137 75.391 65.515 A 11.854 11.854 0 0 0 74.902 68.799 Q 75 70.069 76.245 70.899 A 5.544 5.544 0 0 0 77.065 71.354 A 4.135 4.135 0 0 0 78.76 71.729 Q 80.908 71.729 82.3 69.727 A 19.005 19.005 0 0 0 83.285 68.146 A 22.633 22.633 0 0 0 84.668 65.161 A 52.324 52.324 0 0 1 85.123 64.007 Q 85.862 62.197 86.572 60.889 A 993.014 993.014 0 0 0 88.165 58.362 A 1337.861 1337.861 0 0 0 89.917 55.567 A 43.338 43.338 0 0 1 90.177 55.155 A 47.21 47.21 0 0 1 94.141 49.854 A 25.886 25.886 0 0 1 95.091 48.782 A 22.276 22.276 0 0 1 99.17 45.337 A 12.396 12.396 0 0 1 100.481 44.589 A 9.679 9.679 0 0 1 104.785 43.555 Q 106.494 43.555 106.494 45.362 Q 106.494 46.094 106.201 46.802 A 8.855 8.855 0 0 1 105.859 47.528 A 11.683 11.683 0 0 1 105.42 48.291 A 31.172 31.172 0 0 1 105.034 48.89 Q 104.433 49.8 103.697 50.785 A 56.364 56.364 0 0 1 102.026 52.906 Q 99.951 55.42 98.315 58.326 Q 96.68 61.231 96.68 64.551 A 11.657 11.657 0 0 0 96.693 65.106 Q 96.849 68.392 98.901 69.971 A 7.219 7.219 0 0 0 99.649 70.475 Q 101.702 71.68 104.736 71.68 Q 108.447 71.68 112.256 69.825 A 37.302 37.302 0 0 0 115.102 68.278 A 44.392 44.392 0 0 0 119.8 65.015 A 92.998 92.998 0 0 0 126.904 58.789 A 10.768 10.768 0 0 0 127.376 58.393 Q 128.423 57.46 128.906 56.494 Q 129.218 55.872 129.363 55.304 A 3.848 3.848 0 0 0 129.492 54.346 A 3.828 3.828 0 0 0 129.421 53.592 A 2.672 2.672 0 0 0 128.784 52.295 A 2.859 2.859 0 0 0 128.372 51.918 A 1.932 1.932 0 0 0 127.197 51.514 A 2.378 2.378 0 0 0 127.116 51.515 A 1.901 1.901 0 0 0 125.732 52.149 A 42.583 42.583 0 0 1 125.673 52.213 Q 124.465 53.512 122.583 55.323 A 43.274 43.274 0 0 1 121.594 56.244 A 49.025 49.025 0 0 1 118.335 58.936 A 34.178 34.178 0 0 1 117.172 59.78 A 29.625 29.625 0 0 1 113.647 61.89 A 14.577 14.577 0 0 1 113.206 62.104 Q 112.256 62.544 111.359 62.787 A 8.143 8.143 0 0 1 109.229 63.086 Q 108.574 63.086 108.073 62.978 A 2.983 2.983 0 0 1 107.495 62.793 Q 106.996 62.571 106.875 61.901 A 2.682 2.682 0 0 1 106.836 61.426 Q 106.836 59.815 107.983 57.959 A 27.1 27.1 0 0 1 110.522 54.493 A 300.452 300.452 0 0 0 111.136 53.78 Q 112.074 52.687 112.598 52.051 A 26.555 26.555 0 0 0 115.747 47.217 Q 117.09 44.58 117.09 41.651 A 10.869 10.869 0 0 0 117.086 41.347 Q 116.989 37.878 114.648 36.451 Q 112.207 34.961 108.936 34.961 Q 104.639 34.961 101.611 36.89 A 35.111 35.111 0 0 0 100.121 37.893 A 29.989 29.989 0 0 0 96.289 41.114 A 10.381 10.381 0 0 0 96.23 40.459 Q 96.113 39.506 95.824 38.73 A 4.812 4.812 0 0 0 94.043 36.377 A 7.756 7.756 0 0 0 91.97 35.361 A 8.922 8.922 0 0 0 89.258 34.961 Q 85.596 34.961 82.861 36.28 A 22.545 22.545 0 0 0 81.859 36.794 A 19.66 19.66 0 0 0 78.052 39.478 A 996.133 996.133 0 0 0 76.056 41.291 A 783 783 0 0 0 74.219 42.969 Q 74.548 42.09 74.693 41.319 A 6.175 6.175 0 0 0 74.805 40.186 A 5.815 5.815 0 0 0 74.799 39.93 Q 74.775 39.386 74.648 38.93 A 2.907 2.907 0 0 0 73.853 37.574 Q 72.9 36.67 71.68 36.67 Q 70.264 36.67 68.823 37.696 A 5.337 5.337 0 0 0 68.413 38.019 Q 67.763 38.585 67.242 39.397 A 9.217 9.217 0 0 0 66.504 40.821 Q 65.698 42.725 64.467 45.453 A 424.469 424.469 0 0 1 63.599 47.364 A 4115.038 4115.038 0 0 1 63.369 47.865 A 4507.42 4507.42 0 0 1 59.814 55.616 A 173.271 173.271 0 0 0 58.118 59.497 A 137.909 137.909 0 0 0 56.641 63.135 A 54.135 54.135 0 0 0 56.317 63.987 Q 55.273 66.811 55.273 67.92 Q 55.273 69.483 56.299 70.606 A 3.302 3.302 0 0 0 57.867 71.571 Z M 247.705 73.584 L 257.471 53.809 A 134.026 134.026 0 0 1 252.597 59.3 Q 250.137 61.913 247.853 63.998 A 57.66 57.66 0 0 1 244.189 67.09 Q 238.232 71.68 233.057 71.68 A 6.082 6.082 0 0 1 231.697 71.535 A 4.57 4.57 0 0 1 230.225 70.923 Q 229.053 70.166 229.053 68.409 Q 229.053 66.353 229.883 63.848 A 23.178 23.178 0 0 1 230.225 62.891 A 51.581 51.581 0 0 1 231.725 59.548 A 44.674 44.674 0 0 1 232.3 58.423 A 322.386 322.386 0 0 0 233.989 55.187 A 370.121 370.121 0 0 0 234.57 54.053 A 122.991 122.991 0 0 0 235.541 52.064 Q 235.968 51.17 236.433 50.165 A 247.953 247.953 0 0 0 237.402 48.047 Q 238.51 45.597 239.779 42.477 A 252.972 252.972 0 0 0 240.967 39.502 A 7.609 7.609 0 0 1 241.895 38.082 A 5.601 5.601 0 0 1 243.506 36.744 A 7.582 7.582 0 0 1 244.854 36.159 A 5.548 5.548 0 0 1 246.533 35.889 A 5.381 5.381 0 0 1 247.748 36.02 A 4.001 4.001 0 0 1 249.097 36.597 A 2.615 2.615 0 0 1 249.716 37.166 A 2.09 2.09 0 0 1 250.146 38.477 A 3.376 3.376 0 0 1 250.123 38.884 Q 250.099 39.088 250.047 39.258 A 1.545 1.545 0 0 1 249.951 39.502 L 241.016 58.106 A 12.713 12.713 0 0 0 240.717 58.796 Q 240.442 59.487 240.364 59.984 A 2.364 2.364 0 0 0 240.332 60.352 A 1.344 1.344 0 0 0 240.356 60.619 Q 240.44 61.032 240.817 61.078 A 0.821 0.821 0 0 0 240.918 61.084 A 1.438 1.438 0 0 0 241.301 61.027 Q 241.659 60.927 242.111 60.656 A 6.133 6.133 0 0 0 242.285 60.547 A 11.219 11.219 0 0 0 243.848 59.327 L 264.014 39.502 Q 265.892 38 267.105 37.393 A 5.168 5.168 0 0 1 267.773 37.11 A 8.496 8.496 0 0 1 269.603 36.709 A 7.495 7.495 0 0 1 270.361 36.67 A 2.169 2.169 0 0 1 270.932 36.741 A 1.432 1.432 0 0 1 271.826 37.427 A 3.166 3.166 0 0 1 272.245 38.654 A 3.064 3.064 0 0 1 272.266 39.014 A 3.476 3.476 0 0 1 272.065 40.165 A 3.988 3.988 0 0 1 272.021 40.284 L 261.084 63.086 A 42.296 42.296 0 0 1 263.937 61.132 A 54.388 54.388 0 0 1 266.455 59.644 A 106.187 106.187 0 0 1 270.914 57.296 A 93.727 93.727 0 0 1 272.363 56.592 A 137.613 137.613 0 0 1 273.749 55.944 Q 275.713 55.038 277.198 54.439 A 48.826 48.826 0 0 1 277.246 54.419 A 85.903 85.903 0 0 1 277.719 54.23 Q 278.949 53.744 279.342 53.641 A 0.69 0.69 0 0 1 279.492 53.614 A 2.915 2.915 0 0 1 281.52 54.426 A 3.861 3.861 0 0 1 281.641 54.541 A 3.131 3.131 0 0 1 282.563 56.667 A 4.155 4.155 0 0 1 282.568 56.885 A 3.886 3.886 0 0 1 282.338 58.17 Q 282.161 58.676 281.849 59.202 A 7.627 7.627 0 0 1 281.616 59.571 A 5.945 5.945 0 0 1 280.746 60.576 Q 279.804 61.46 278.271 62.305 A 383.435 383.435 0 0 1 275.275 63.953 A 320.689 320.689 0 0 1 272.437 65.479 Q 269.694 66.935 267.844 67.957 A 158.862 158.862 0 0 0 267.822 67.969 L 264.355 69.922 A 42.874 42.874 0 0 0 261.046 72.055 A 37.74 37.74 0 0 0 260.034 72.803 A 53.589 53.589 0 0 0 257.054 75.266 A 61.503 61.503 0 0 0 256.055 76.172 Q 253.906 81.787 252.026 86.084 Q 250.315 89.996 249.798 91.034 A 8.23 8.23 0 0 1 249.707 91.211 Q 245.752 99.414 241.016 99.414 A 4.793 4.793 0 0 1 239.501 99.185 A 3.966 3.966 0 0 1 237.842 98.12 A 4.342 4.342 0 0 1 236.772 96.063 A 6.435 6.435 0 0 1 236.621 94.629 A 16.562 16.562 0 0 1 237.134 90.552 A 15.546 15.546 0 0 1 237.737 88.7 Q 238.223 87.458 238.965 86.084 Q 240.055 83.989 241.774 81.479 A 68.563 68.563 0 0 1 242.358 80.64 Q 244.482 77.637 247.705 73.584 Z M 196.924 40.821 L 213.037 9.131 Q 213.623 7.862 215.332 6.861 Q 217.041 5.86 218.75 5.86 A 9.046 9.046 0 0 1 219.742 5.91 Q 220.778 6.025 221.387 6.401 A 1.997 1.997 0 0 1 221.729 6.665 Q 222.559 7.471 222.559 8.643 Q 222.559 9.717 222.021 10.913 A 15.405 15.405 0 0 1 220.928 12.941 A 14.119 14.119 0 0 1 220.801 13.135 A 265.498 265.498 0 0 0 215.07 23.536 A 308.105 308.105 0 0 0 212.842 27.881 A 228.794 228.794 0 0 1 204.541 42.969 A 79.156 79.156 0 0 1 207.489 40.245 A 90.041 90.041 0 0 1 208.545 39.331 A 21.715 21.715 0 0 1 213.379 36.231 A 13.12 13.12 0 0 1 217.215 35.115 A 16.92 16.92 0 0 1 219.531 34.961 A 13.674 13.674 0 0 1 222.151 35.2 A 9.835 9.835 0 0 1 225.049 36.231 Q 227.323 37.489 227.344 40.761 A 9.531 9.531 0 0 1 227.344 40.821 A 12.388 12.388 0 0 1 226.637 45.035 A 11.562 11.562 0 0 1 225.977 46.534 Q 224.609 49.121 222.754 51.416 A 57.98 57.98 0 0 0 219.385 56.055 Q 217.822 58.448 217.529 61.28 L 217.529 61.475 L 217.48 61.67 A 2.202 2.202 0 0 0 217.519 62.1 Q 217.566 62.335 217.669 62.506 A 0.896 0.896 0 0 0 218.14 62.891 Q 218.799 63.135 219.824 63.135 Q 221.67 63.135 223.785 62.201 A 14.849 14.849 0 0 0 224.146 62.036 A 32.337 32.337 0 0 0 227.492 60.192 A 37.821 37.821 0 0 0 228.809 59.327 A 54.668 54.668 0 0 0 232.519 56.485 A 49.248 49.248 0 0 0 233.081 56.006 Q 234.96 54.382 236.156 53.243 A 43.57 43.57 0 0 0 236.279 53.125 Q 237.109 52.344 238.135 52.344 A 1.943 1.943 0 0 1 239.566 52.943 A 2.446 2.446 0 0 1 239.624 53.003 Q 240.22 53.647 240.234 54.733 A 4.074 4.074 0 0 1 240.234 54.786 A 3.62 3.62 0 0 1 240.118 55.667 Q 239.947 56.346 239.526 57.129 A 6.248 6.248 0 0 1 238.786 58.2 Q 238.375 58.687 237.828 59.173 A 13.448 13.448 0 0 1 237.109 59.766 Q 233.594 62.793 229.858 65.528 A 44.447 44.447 0 0 1 224.817 68.739 A 37.85 37.85 0 0 1 222.339 69.971 A 19.686 19.686 0 0 1 218.12 71.353 A 16.328 16.328 0 0 1 214.893 71.68 A 12.313 12.313 0 0 1 212.583 71.476 Q 210.673 71.111 209.326 70.093 Q 207.227 68.506 207.227 65.088 A 14.231 14.231 0 0 1 208.765 58.643 Q 210.303 55.567 212.231 52.93 A 76.246 76.246 0 0 0 213.572 51.042 Q 214.214 50.105 214.741 49.265 A 37.147 37.147 0 0 0 215.332 48.291 A 11.717 11.717 0 0 0 215.793 47.589 Q 215.991 47.261 216.141 46.955 A 6.553 6.553 0 0 0 216.235 46.753 A 3.675 3.675 0 0 0 216.55 45.37 A 4.255 4.255 0 0 0 216.553 45.215 A 2.472 2.472 0 0 0 216.476 44.568 Q 216.2 43.555 214.941 43.555 A 10.907 10.907 0 0 0 208.081 45.923 A 26.851 26.851 0 0 0 203.67 50.279 A 31.265 31.265 0 0 0 202.563 51.734 A 154.312 154.312 0 0 0 199.369 56.363 A 132.099 132.099 0 0 0 198.047 58.399 Q 197.299 59.558 196.494 61.117 A 51.144 51.144 0 0 0 195.996 62.11 A 74.144 74.144 0 0 1 194.247 65.461 A 83.441 83.441 0 0 1 193.604 66.602 Q 192.383 68.75 190.918 70.215 A 6.212 6.212 0 0 1 189.949 71.017 Q 189.312 71.437 188.657 71.591 A 3.335 3.335 0 0 1 187.891 71.68 Q 186.34 71.68 185.433 70.856 A 2.92 2.92 0 0 1 185.254 70.679 A 3.452 3.452 0 0 1 184.346 68.591 A 4.602 4.602 0 0 1 184.326 68.164 Q 184.326 66.34 185.64 63.472 A 28.576 28.576 0 0 1 185.986 62.744 Q 187.598 59.375 189.648 55.249 A 727.335 727.335 0 0 1 193.181 48.235 A 663.217 663.217 0 0 1 193.677 47.266 Q 195.607 43.502 196.862 40.947 A 221.127 221.127 0 0 0 196.924 40.821 Z M 164.6 55.274 L 170.313 43.555 L 168.213 43.555 A 13.352 13.352 0 0 1 166.953 43.5 Q 165.222 43.335 164.453 42.676 A 3.423 3.423 0 0 1 163.869 42.043 A 2.342 2.342 0 0 1 163.428 40.674 A 2.471 2.471 0 0 1 163.603 39.797 Q 163.869 39.094 164.543 38.29 A 9.416 9.416 0 0 1 164.697 38.111 Q 165.967 36.67 168.164 36.67 L 173.438 36.67 L 183.74 16.211 Q 184.622 14.537 185.88 13.717 A 4.823 4.823 0 0 1 186.157 13.55 A 6.173 6.173 0 0 1 188.482 12.783 A 5.94 5.94 0 0 1 189.16 12.744 Q 190.625 12.744 191.846 13.526 A 2.534 2.534 0 0 1 192.964 15.155 A 4.215 4.215 0 0 1 193.066 16.114 A 4.476 4.476 0 0 1 192.834 17.517 A 5.452 5.452 0 0 1 192.651 17.994 Q 192.236 18.946 191.553 20.215 A 2448.811 2448.811 0 0 1 191.129 21.01 Q 190.656 21.895 190.042 23.045 A 7920.573 7920.573 0 0 1 189.453 24.146 A 223.532 223.532 0 0 1 188.375 26.136 Q 187.402 27.912 186.182 30.078 L 182.666 36.67 L 198.584 36.67 A 14.869 14.869 0 0 1 200.094 36.742 Q 200.851 36.82 201.491 36.98 A 6.807 6.807 0 0 1 202.417 37.281 A 2.242 2.242 0 0 1 203.775 38.875 Q 203.89 39.306 203.904 39.837 A 5.691 5.691 0 0 1 203.906 39.991 A 3.116 3.116 0 0 1 203.57 41.379 A 4.33 4.33 0 0 1 203.125 42.09 A 2.2 2.2 0 0 1 202.418 42.674 Q 201.723 43.054 200.567 43.223 A 11.782 11.782 0 0 1 199.756 43.311 L 179.443 43.311 L 176.025 50.147 L 172.998 56.348 Q 172.412 57.52 171.851 59.058 Q 171.289 60.596 171.289 61.768 Q 171.289 63.014 172.279 63.2 A 2.047 2.047 0 0 0 172.656 63.233 A 5.126 5.126 0 0 0 173.73 63.106 Q 174.747 62.886 176.071 62.288 A 21.985 21.985 0 0 0 176.855 61.914 A 51.271 51.271 0 0 0 179.914 60.246 A 66.129 66.129 0 0 0 182.422 58.692 Q 185.4 56.787 188.135 54.712 A 124.346 124.346 0 0 0 191.381 52.166 A 102.177 102.177 0 0 0 193.164 50.684 Q 193.994 50.147 194.629 50.147 A 1.569 1.569 0 0 1 195.922 50.786 A 2.654 2.654 0 0 1 196.24 51.319 A 3.35 3.35 0 0 1 196.524 52.398 Q 196.602 53.193 196.362 54.151 A 4.595 4.595 0 0 1 195.663 55.65 Q 195.292 56.187 194.752 56.707 A 9.941 9.941 0 0 1 194.043 57.325 A 122.449 122.449 0 0 1 187.622 62.769 A 77.902 77.902 0 0 1 182.992 66.164 A 67.301 67.301 0 0 1 181.201 67.334 A 42.369 42.369 0 0 1 177.211 69.48 A 35.477 35.477 0 0 1 174.854 70.484 A 18.527 18.527 0 0 1 171.4 71.451 A 15.187 15.187 0 0 1 168.799 71.68 Q 166.623 71.68 165.193 71.074 A 4.387 4.387 0 0 1 163.428 69.776 A 6.917 6.917 0 0 1 161.997 66.346 A 9.208 9.208 0 0 1 161.914 65.088 Q 161.914 62.647 162.744 60.01 A 38.303 38.303 0 0 1 163.725 57.25 A 29.746 29.746 0 0 1 164.6 55.274 Z M 4.736 18.36 L 4.102 18.555 A 20.414 20.414 0 0 1 3.932 18.588 Q 3.607 18.65 3.521 18.653 A 0.23 0.23 0 0 1 3.516 18.653 Q 2.002 18.653 1.001 17.359 A 4.845 4.845 0 0 1 0.22 15.922 A 4.315 4.315 0 0 1 0 14.551 A 2.177 2.177 0 0 1 0.371 13.409 Q 1.266 11.966 4.321 10.205 Q 8.643 7.715 16.064 5.323 A 110.72 110.72 0 0 1 24.814 2.988 A 142.06 142.06 0 0 1 32.324 1.514 A 107.397 107.397 0 0 1 50.293 0 Q 59.473 0 64.357 2.412 A 13.166 13.166 0 0 1 65.625 3.125 A 13.266 13.266 0 0 1 68.209 5.241 A 8.524 8.524 0 0 1 70.605 11.036 A 3.666 3.666 0 0 1 70.508 11.827 Q 70.328 12.632 69.818 13.725 A 19.388 19.388 0 0 1 69.434 14.502 A 13.839 13.839 0 0 1 66.71 18.097 A 16.004 16.004 0 0 1 66.211 18.555 Q 64.16 20.362 61.475 20.362 A 7.03 7.03 0 0 1 60.341 20.264 Q 59.787 20.173 59.177 19.998 A 13.247 13.247 0 0 1 58.691 19.849 Q 57.129 19.336 57.129 17.676 A 1.642 1.642 0 0 1 57.185 17.277 Q 57.328 16.712 57.837 15.869 A 67.402 67.402 0 0 0 59.229 13.453 A 8.566 8.566 0 0 0 59.559 12.789 Q 59.912 11.988 59.912 11.426 A 2.075 2.075 0 0 0 59.069 9.751 Q 58.507 9.298 57.568 8.985 A 11.263 11.263 0 0 0 56.099 8.647 Q 54.527 8.382 52.182 8.295 A 66.961 66.961 0 0 0 49.707 8.252 A 163.357 163.357 0 0 0 42.713 8.656 Q 39.431 8.92 36.518 9.31 A 96.449 96.449 0 0 0 35.693 9.424 A 98.56 98.56 0 0 0 29.822 10.437 A 75.951 75.951 0 0 0 24.512 11.719 A 156.376 156.376 0 0 0 18.066 13.697 A 230.891 230.891 0 0 0 11.67 15.918 A 102.669 102.669 0 0 1 8.301 17.139 A 5434.374 5434.374 0 0 1 5.655 18.045 A 6131.255 6131.255 0 0 1 4.736 18.36 Z M 130.615 71.68 Q 128.662 71.68 126.196 70.63 Q 123.73 69.58 121.924 67.286 A 8.052 8.052 0 0 1 120.463 64.24 Q 120.117 62.876 120.117 61.231 A 16.313 16.313 0 0 1 120.311 58.823 Q 120.497 57.584 120.86 56.177 A 38.528 38.528 0 0 1 121.558 53.809 A 31.829 31.829 0 0 1 124.265 47.813 A 38.644 38.644 0 0 1 125.977 45.118 A 25.7 25.7 0 0 1 133.74 37.867 A 19.704 19.704 0 0 1 141.972 35.11 A 24.862 24.862 0 0 1 144.727 34.961 A 15.216 15.216 0 0 1 147.775 35.284 A 19.838 19.838 0 0 1 150.024 35.889 A 11.225 11.225 0 0 1 154.834 38.99 A 7.231 7.231 0 0 1 156.493 42.098 Q 156.788 43.212 156.829 44.533 A 13.96 13.96 0 0 1 156.836 44.971 Q 156.836 48.096 155.273 52.246 A 2.86 2.86 0 0 0 157.116 53.273 A 4.21 4.21 0 0 0 157.764 53.321 Q 158.859 53.321 160.209 52.682 A 11.552 11.552 0 0 0 161.279 52.1 A 25.376 25.376 0 0 0 164.009 50.168 A 30.2 30.2 0 0 0 165.234 49.121 A 52.792 52.792 0 0 0 167.814 46.704 A 45.161 45.161 0 0 0 168.872 45.606 A 187.039 187.039 0 0 0 169.646 44.77 Q 170.398 43.951 170.962 43.315 A 57.084 57.084 0 0 0 171.436 42.774 A 1.128 1.128 0 0 1 172.25 42.432 A 1.383 1.383 0 0 1 172.266 42.432 Q 173.265 42.432 173.757 43.614 A 3.85 3.85 0 0 1 173.828 43.799 Q 174.271 45.04 173.749 46.865 A 10.025 10.025 0 0 1 173.633 47.242 A 7.019 7.019 0 0 1 172.823 48.881 Q 172.347 49.609 171.658 50.351 A 16.777 16.777 0 0 1 170.459 51.514 A 3500.955 3500.955 0 0 0 169.268 52.785 Q 168.198 53.928 166.87 55.347 A 29.546 29.546 0 0 1 162.28 59.351 A 10.33 10.33 0 0 1 160.148 60.521 A 7.748 7.748 0 0 1 157.275 61.084 A 8.002 8.002 0 0 1 153.007 59.836 A 10.063 10.063 0 0 1 152.393 59.424 A 27.276 27.276 0 0 1 143.213 68.384 A 23.797 23.797 0 0 1 132.364 71.628 A 28.879 28.879 0 0 1 130.615 71.68 Z M 38.184 18.36 L 24.951 45.508 A 660.825 660.825 0 0 1 20.605 54.418 A 716.083 716.083 0 0 1 20.459 54.712 A 1147.675 1147.675 0 0 1 18.364 58.904 Q 17.234 61.152 16.235 63.111 A 229.021 229.021 0 0 1 15.386 64.76 Q 14.154 67.128 13.525 68.164 Q 12.061 71.143 9.595 72.608 Q 7.384 73.921 5.35 74.057 A 7.007 7.007 0 0 1 4.883 74.073 A 5.025 5.025 0 0 1 3.609 73.918 A 3.884 3.884 0 0 1 2.246 73.267 A 2.614 2.614 0 0 1 1.216 71.502 A 3.942 3.942 0 0 1 1.172 70.899 A 5.602 5.602 0 0 1 1.202 70.331 Q 1.231 70.051 1.286 69.744 A 9.1 9.1 0 0 1 1.294 69.703 Q 1.404 69.109 1.731 68.417 A 7.902 7.902 0 0 1 1.807 68.262 A 523.388 523.388 0 0 1 8.301 55.295 A 475.568 475.568 0 0 1 9.229 53.516 A 681.259 681.259 0 0 1 12.866 46.668 A 562.902 562.902 0 0 1 16.357 40.284 A 341.656 341.656 0 0 1 18.88 35.82 A 302.867 302.867 0 0 1 19.702 34.4 Q 21.338 31.592 22.852 29.053 A 203.301 203.301 0 0 1 25.807 24.339 Q 27.155 22.258 28.381 20.501 A 83.736 83.736 0 0 1 30.713 17.31 A 47.015 47.015 0 0 1 31.903 15.825 Q 34.317 12.943 35.349 12.94 A 0.707 0.707 0 0 1 35.352 12.94 Q 36.562 12.94 37.332 13.43 A 2.471 2.471 0 0 1 37.891 13.916 A 3.432 3.432 0 0 1 38.721 16.211 A 4.178 4.178 0 0 1 38.603 17.17 Q 38.502 17.595 38.317 18.052 A 7.678 7.678 0 0 1 38.184 18.36 Z M 40.723 42.627 L 42.383 39.209 A 6.91 6.91 0 0 1 43.04 38.294 Q 43.463 37.801 43.937 37.472 A 3.872 3.872 0 0 1 44.287 37.256 A 4.791 4.791 0 0 1 45.645 36.754 A 4.273 4.273 0 0 1 46.484 36.67 A 4.646 4.646 0 0 1 49.683 37.867 A 3.875 3.875 0 0 1 51.02 40.689 A 4.963 4.963 0 0 1 51.025 40.918 A 16.283 16.283 0 0 1 50.903 41.797 Q 50.83 42.237 50.586 42.676 A 68.589 68.589 0 0 0 49.585 44.562 A 52.165 52.165 0 0 0 48.73 46.314 Q 47.949 47.998 47.119 49.707 A 198.533 198.533 0 0 1 46.558 50.859 Q 46.051 51.892 45.41 53.174 Q 44.385 55.225 43.604 57.3 Q 42.99 58.93 42.858 60.273 A 7.313 7.313 0 0 0 42.822 60.987 A 4.091 4.091 0 0 0 42.861 61.572 Q 42.961 62.262 43.321 62.596 A 1.084 1.084 0 0 0 43.481 62.72 Q 43.95 63.015 44.702 63.1 A 5.863 5.863 0 0 0 45.361 63.135 Q 47.314 63.135 49.683 61.914 Q 52.051 60.694 54.199 58.887 A 55.861 55.861 0 0 0 57.623 55.903 A 50.006 50.006 0 0 0 58.35 55.201 A 66.131 66.131 0 0 0 59.241 54.305 Q 60.486 53.028 61.182 52.149 A 3.81 3.81 0 0 1 61.824 51.625 Q 62.289 51.328 62.778 51.25 A 2.235 2.235 0 0 1 63.135 51.221 Q 64.014 51.221 64.575 52.002 Q 65.137 52.784 65.137 54.004 A 5.138 5.138 0 0 1 64.969 55.276 Q 64.83 55.822 64.575 56.397 A 6.171 6.171 0 0 1 63.719 57.779 A 8.44 8.44 0 0 1 62.744 58.789 A 97.48 97.48 0 0 1 56.006 65.015 A 39.321 39.321 0 0 1 51.205 68.489 A 33.62 33.62 0 0 1 48.804 69.825 Q 45.117 71.68 41.406 71.68 Q 38.222 71.68 36.129 70.366 A 7.059 7.059 0 0 1 35.181 69.654 A 6.255 6.255 0 0 1 33.443 66.96 Q 33.093 65.944 32.973 64.698 A 14.257 14.257 0 0 1 32.91 63.33 A 16.859 16.859 0 0 1 33.941 57.582 A 19.035 19.035 0 0 1 34.009 57.398 A 51.983 51.983 0 0 1 36.077 52.573 A 46.857 46.857 0 0 1 36.45 51.831 A 73.76 73.76 0 0 0 37.378 49.965 Q 38.086 48.487 38.574 47.266 A 14.221 14.221 0 0 1 38.719 46.906 Q 38.971 46.302 39.429 45.313 A 99.195 99.195 0 0 1 40.723 42.627 Z M 134.863 63.135 A 9.087 9.087 0 0 0 139.862 61.621 A 11.563 11.563 0 0 0 140.625 61.084 A 15.654 15.654 0 0 0 144.971 55.909 A 14.092 14.092 0 0 0 146.435 51.744 A 12.769 12.769 0 0 0 146.631 49.512 A 13.342 13.342 0 0 0 146.504 47.709 A 15.794 15.794 0 0 0 146.362 46.851 A 4.685 4.685 0 0 0 145.753 45.257 A 4.362 4.362 0 0 0 145.166 44.507 Q 144.471 43.794 143.144 43.615 A 7.179 7.179 0 0 0 142.188 43.555 A 9.42 9.42 0 0 0 137.162 45.025 A 11.81 11.81 0 0 0 136.475 45.484 A 14.862 14.862 0 0 0 132.157 50.369 A 17.079 17.079 0 0 0 132.105 50.464 A 13.007 13.007 0 0 0 130.42 56.836 Q 130.42 58.038 130.704 59.5 A 19.435 19.435 0 0 0 130.713 59.546 Q 131.006 61.036 131.958 62.085 A 2.978 2.978 0 0 0 133.275 62.912 Q 133.963 63.135 134.863 63.135 Z M 51.968 31.63 A 15.282 15.282 0 0 0 53.369 31.69 Q 56.641 31.69 58.081 29.444 Q 59.521 27.198 59.521 25.342 A 4.831 4.831 0 0 0 59.52 25.239 A 3.68 3.68 0 0 0 58.398 22.583 A 2.719 2.719 0 0 0 57.987 22.254 Q 57.164 21.715 55.753 21.553 A 11.579 11.579 0 0 0 54.443 21.485 A 8.355 8.355 0 0 0 52.931 21.615 A 5.449 5.449 0 0 0 49.438 23.706 A 9.401 9.401 0 0 0 48.445 25.313 A 6.665 6.665 0 0 0 47.754 28.223 A 4.291 4.291 0 0 0 47.767 28.344 A 3.457 3.457 0 0 0 49.121 30.738 Q 50.037 31.452 51.968 31.63 Z" vector-effect="non-scaling-stroke"/></g></svg>