<svg width="349.7" height="90.5" viewBox="0 0 349.7 90.5" xmlns="http://www.w3.org/2000/svg"><g id="svgGroup" stroke-linecap="round" fill-rule="evenodd" font-size="9pt" stroke="#ffffff" stroke-width="0.25mm" fill="#ffffff" style="stroke:#ffffff;stroke-width:0.25mm;fill:#ffffff"><path d="M 39.7 69.3 L 13.3 69.3 L 13.3 66.6 Q 17.9 66.6 19.9 66.15 A 5.568 5.568 0 0 0 20.841 65.856 Q 21.319 65.655 21.658 65.376 A 2.165 2.165 0 0 0 22.35 64.4 A 6.071 6.071 0 0 0 22.568 63.558 Q 22.8 62.341 22.8 60.4 L 22.8 6.3 L 17 6.3 A 53.475 53.475 0 0 0 14.064 6.375 Q 11.23 6.532 9.322 7.014 A 12.374 12.374 0 0 0 8.5 7.25 A 6.714 6.714 0 0 0 6.117 8.578 A 6.391 6.391 0 0 0 4.45 10.95 A 16.218 16.218 0 0 0 3.793 12.9 Q 3.211 15.017 2.823 18.068 A 65.563 65.563 0 0 0 2.7 19.1 L 0 19.1 L 0 3.3 L 53 3.3 L 53 19.1 L 50.3 19.1 A 54.025 54.025 0 0 0 49.915 16.272 Q 49.455 13.485 48.779 11.648 A 12.734 12.734 0 0 0 48.5 10.95 A 6.436 6.436 0 0 0 44.8 7.376 A 7.855 7.855 0 0 0 44.45 7.25 A 14.32 14.32 0 0 0 42.458 6.759 Q 39.894 6.3 36 6.3 L 30.2 6.3 L 30.2 60.4 Q 30.2 62.606 30.5 63.877 A 5.392 5.392 0 0 0 30.65 64.4 Q 31.013 65.448 32.384 65.944 A 5.951 5.951 0 0 0 33.1 66.15 Q 34.608 66.489 37.593 66.573 A 75.672 75.672 0 0 0 39.7 66.6 L 39.7 69.3 Z M 320.1 80 L 339.6 29 A 9.317 9.317 0 0 0 339.829 28.365 Q 340.308 26.858 339.85 26.15 A 1.592 1.592 0 0 0 339.149 25.569 Q 338.594 25.317 337.72 25.301 A 6.558 6.558 0 0 0 337.6 25.3 L 333.3 25.3 L 333.3 22.6 L 349.7 22.6 L 349.7 25.3 A 26.028 26.028 0 0 0 348.288 25.336 Q 346.979 25.407 346.099 25.622 A 5.691 5.691 0 0 0 345.65 25.75 A 3.99 3.99 0 0 0 344.57 26.291 A 3.299 3.299 0 0 0 343.65 27.3 Q 343.182 28.092 342.688 29.246 A 31.007 31.007 0 0 0 342.3 30.2 L 322 83.2 Q 321.3 85 320.6 86.4 A 10.388 10.388 0 0 1 319.9 87.603 A 7.576 7.576 0 0 1 319 88.7 A 5.597 5.597 0 0 1 317.119 89.93 A 6.602 6.602 0 0 1 316.8 90.05 Q 315.5 90.5 313.7 90.5 Q 311.2 90.5 309.45 89.55 A 6.918 6.918 0 0 1 307.672 88.193 A 6.202 6.202 0 0 1 306.8 87 A 6.963 6.963 0 0 1 306.016 84.909 A 6.322 6.322 0 0 1 305.9 83.7 A 6.048 6.048 0 0 1 306.096 82.118 A 4.468 4.468 0 0 1 307.2 80.15 Q 308.5 78.8 310.4 78.8 A 4.706 4.706 0 0 1 312.609 79.361 A 5.895 5.895 0 0 1 313.1 79.65 Q 314.4 80.5 314.4 82.5 A 5.433 5.433 0 0 1 314.366 83.127 Q 314.331 83.432 314.258 83.688 A 2.38 2.38 0 0 1 314.1 84.1 A 11.538 11.538 0 0 1 313.805 84.654 Q 313.652 84.921 313.5 85.15 A 1.59 1.59 0 0 0 313.3 85.592 Q 313.241 85.797 313.217 86.043 A 3.654 3.654 0 0 0 313.2 86.4 Q 313.2 86.891 313.389 87.194 A 0.918 0.918 0 0 0 313.7 87.5 A 2.064 2.064 0 0 0 314.403 87.758 A 2.803 2.803 0 0 0 314.9 87.8 Q 316.4 87.8 317.35 86.25 Q 318.13 84.978 319.481 81.585 A 127.184 127.184 0 0 0 320.1 80 Z M 227.6 60.7 L 227.6 25.3 L 219.4 25.3 L 219.4 22.6 A 12.227 12.227 0 0 0 222.446 22.239 A 9.203 9.203 0 0 0 225.9 20.55 A 13.694 13.694 0 0 0 229.181 16.763 A 17.04 17.04 0 0 0 230.05 15.1 A 24.864 24.864 0 0 0 231.939 8.813 A 28.43 28.43 0 0 0 232.1 7.7 L 234.2 7.7 L 234.2 22.6 L 245.5 22.6 L 245.5 25.3 L 234.2 25.3 L 234.2 60.4 Q 234.2 64.4 235.35 65.8 A 4.259 4.259 0 0 0 236.255 66.639 A 3.23 3.23 0 0 0 238.1 67.2 A 7.029 7.029 0 0 0 240.949 66.58 A 9.029 9.029 0 0 0 242.05 66 A 28.761 28.761 0 0 0 243.115 65.314 Q 244.267 64.533 244.9 63.9 L 246 66.2 A 63.911 63.911 0 0 1 245.058 66.938 Q 244.572 67.313 244.023 67.723 A 112.706 112.706 0 0 1 243.65 68 Q 242.3 69 240.5 69.7 Q 238.874 70.332 236.677 70.393 A 17.147 17.147 0 0 1 236.2 70.4 Q 235.034 70.4 233.566 70.037 A 18.208 18.208 0 0 1 232.7 69.8 A 6.201 6.201 0 0 1 230.43 68.53 A 8.839 8.839 0 0 1 229.15 67.15 Q 227.699 65.231 227.606 61.252 A 23.729 23.729 0 0 1 227.6 60.7 Z M 271.4 69.3 L 250.6 69.3 L 250.6 66.6 Q 253.216 66.6 254.707 66.393 A 8.931 8.931 0 0 0 255.5 66.25 A 3.238 3.238 0 0 0 256.289 65.963 A 2.063 2.063 0 0 0 257.35 64.65 Q 257.7 63.4 257.7 61 L 257.7 8.7 Q 257.7 6.1 257.1 5.3 A 1.646 1.646 0 0 0 256.452 4.799 Q 255.904 4.547 255.037 4.507 A 7.346 7.346 0 0 0 254.7 4.5 L 251 4.5 L 251 1.8 L 261.6 0 L 264.3 0 L 264.3 61 Q 264.3 63.08 264.6 64.296 A 5.452 5.452 0 0 0 264.7 64.65 A 2.224 2.224 0 0 0 266.036 66.071 A 3.567 3.567 0 0 0 266.6 66.25 Q 268.1 66.6 271.4 66.6 L 271.4 69.3 Z M 300.4 69.3 L 279.6 69.3 L 279.6 66.6 Q 282.163 66.6 283.618 66.401 A 8.484 8.484 0 0 0 284.45 66.25 A 3.112 3.112 0 0 0 285.271 65.933 A 2.198 2.198 0 0 0 286.3 64.65 A 6.566 6.566 0 0 0 286.509 63.769 Q 286.673 62.816 286.696 61.459 A 26.821 26.821 0 0 0 286.7 61 L 286.7 36.6 A 17.722 17.722 0 0 0 286.002 31.59 A 16.631 16.631 0 0 0 285.85 31.1 Q 285 28.5 282.9 26.85 A 7.042 7.042 0 0 0 280.58 25.673 Q 279.614 25.377 278.457 25.266 A 15.299 15.299 0 0 0 277 25.2 A 14.297 14.297 0 0 0 273.547 25.594 A 9.837 9.837 0 0 0 268.8 28.25 A 38.021 38.021 0 0 0 265.206 32.512 A 47.342 47.342 0 0 0 263.2 35.5 L 263.2 31.2 Q 265.2 28 267.45 25.8 Q 269.7 23.6 272.65 22.5 A 16.367 16.367 0 0 1 275.668 21.71 Q 277.16 21.461 278.862 21.412 A 29.257 29.257 0 0 1 279.7 21.4 A 23.08 23.08 0 0 1 283.483 21.688 Q 287.739 22.397 290.05 24.85 A 10.44 10.44 0 0 1 292.214 28.464 Q 293.3 31.422 293.3 35.7 L 293.3 61 Q 293.3 63.4 293.65 64.65 Q 294 65.9 295.5 66.25 Q 297 66.6 300.4 66.6 L 300.4 69.3 Z M 135.8 69.3 L 115 69.3 L 115 66.6 Q 117.616 66.6 119.107 66.393 A 8.931 8.931 0 0 0 119.9 66.25 A 3.386 3.386 0 0 0 120.671 65.977 A 2.027 2.027 0 0 0 121.75 64.7 A 6.461 6.461 0 0 0 121.919 63.922 Q 122.057 63.066 122.09 61.821 A 31.127 31.127 0 0 0 122.1 61 L 122.1 36.6 A 22.732 22.732 0 0 0 121.799 32.835 A 19.409 19.409 0 0 0 121.4 31 A 9.251 9.251 0 0 0 120.386 28.585 A 7.781 7.781 0 0 0 118.9 26.8 A 5.81 5.81 0 0 0 116.781 25.625 Q 115.91 25.346 114.855 25.25 A 12.754 12.754 0 0 0 113.7 25.2 Q 110.4 25.2 107.95 26.8 Q 105.5 28.4 103.65 30.75 A 53.821 53.821 0 0 0 100.394 35.35 A 49.645 49.645 0 0 0 100.3 35.5 L 100.3 31.2 A 32.512 32.512 0 0 1 102.727 27.841 A 26.686 26.686 0 0 1 104.4 26 Q 106.6 23.8 109.55 22.6 Q 112.5 21.4 116.5 21.4 Q 119.759 21.4 122.134 22.253 A 10.678 10.678 0 0 1 123.3 22.75 Q 126 24.1 127.35 26.7 Q 128.521 28.955 128.676 32.187 A 21.088 21.088 0 0 1 128.7 33.2 L 128.7 61 Q 128.7 63.021 128.929 64.192 A 5.766 5.766 0 0 0 129.05 64.7 A 2.043 2.043 0 0 0 130.203 66.013 A 3.475 3.475 0 0 0 130.9 66.25 Q 132.4 66.6 135.8 66.6 L 135.8 69.3 Z M 163.1 69.3 L 142.3 69.3 L 142.3 66.6 Q 144.916 66.6 146.407 66.393 A 8.931 8.931 0 0 0 147.2 66.25 A 3.386 3.386 0 0 0 147.971 65.977 A 2.027 2.027 0 0 0 149.05 64.7 A 6.461 6.461 0 0 0 149.219 63.922 Q 149.357 63.066 149.39 61.821 A 31.127 31.127 0 0 0 149.4 61 L 149.4 36.6 A 22.732 22.732 0 0 0 149.099 32.835 A 19.409 19.409 0 0 0 148.7 31 A 9.251 9.251 0 0 0 147.686 28.585 A 7.781 7.781 0 0 0 146.2 26.8 A 5.81 5.81 0 0 0 144.081 25.625 Q 143.21 25.346 142.155 25.25 A 12.754 12.754 0 0 0 141 25.2 Q 137.7 25.2 135.25 26.8 Q 132.8 28.4 130.95 30.75 A 53.821 53.821 0 0 0 127.694 35.35 A 49.645 49.645 0 0 0 127.6 35.5 L 127.6 31.2 A 28.306 28.306 0 0 1 130.713 27.051 A 22.131 22.131 0 0 1 134.05 24.05 Q 137.214 21.753 142.22 21.447 A 25.927 25.927 0 0 1 143.8 21.4 A 19.61 19.61 0 0 1 147.168 21.669 Q 151.102 22.356 153.15 24.8 Q 156 28.2 156 35.7 L 156 61 Q 156 63.021 156.229 64.192 A 5.766 5.766 0 0 0 156.35 64.7 A 2.043 2.043 0 0 0 157.503 66.013 A 3.475 3.475 0 0 0 158.2 66.25 Q 159.7 66.6 163.1 66.6 L 163.1 69.3 Z M 186.26 69.87 A 27.137 27.137 0 0 0 192.3 70.5 A 33.657 33.657 0 0 0 193.241 70.487 Q 203.131 70.21 208.05 64.05 A 20.149 20.149 0 0 0 210.664 59.735 Q 213.2 54.11 213.2 45.9 A 46.365 46.365 0 0 0 213.033 41.892 Q 212.715 38.226 211.789 35.167 A 21.629 21.629 0 0 0 208.05 27.85 A 15.715 15.715 0 0 0 205.311 25.162 Q 202.407 22.939 198.393 22.03 A 27.581 27.581 0 0 0 192.3 21.4 A 33.486 33.486 0 0 0 191.734 21.405 Q 181.66 21.575 176.65 27.85 A 20.202 20.202 0 0 0 174.067 32.087 Q 171.5 37.71 171.5 45.9 A 47.017 47.017 0 0 0 171.672 49.998 Q 172.44 58.778 176.65 64.05 A 15.842 15.842 0 0 0 179.178 66.578 Q 182.135 68.928 186.26 69.87 Z M 108.5 69.3 L 87.7 69.3 L 87.7 66.6 Q 90.316 66.6 91.807 66.393 A 8.931 8.931 0 0 0 92.6 66.25 A 3.386 3.386 0 0 0 93.371 65.977 A 2.027 2.027 0 0 0 94.45 64.7 A 6.461 6.461 0 0 0 94.619 63.922 Q 94.757 63.066 94.79 61.821 A 31.127 31.127 0 0 0 94.8 61 L 94.8 30.7 Q 94.8 28.1 94.2 27.3 A 1.646 1.646 0 0 0 93.552 26.799 Q 93.004 26.547 92.137 26.507 A 7.346 7.346 0 0 0 91.8 26.5 L 88.1 26.5 L 88.1 23.8 L 98.4 22 L 101.1 22 L 101.1 29.8 L 101.4 29.8 L 101.4 61 Q 101.4 63.023 101.662 64.195 A 5.166 5.166 0 0 0 101.8 64.7 A 2.172 2.172 0 0 0 103.019 66.022 A 3.579 3.579 0 0 0 103.7 66.25 Q 105.2 66.6 108.5 66.6 L 108.5 69.3 Z M 79.6 69.3 L 58.8 69.3 L 58.8 66.6 Q 61.416 66.6 62.907 66.393 A 8.931 8.931 0 0 0 63.7 66.25 A 3.238 3.238 0 0 0 64.489 65.963 A 2.063 2.063 0 0 0 65.55 64.65 Q 65.9 63.4 65.9 61 L 65.9 30.7 Q 65.9 28.1 65.3 27.3 A 1.646 1.646 0 0 0 64.652 26.799 Q 64.104 26.547 63.237 26.507 A 7.346 7.346 0 0 0 62.9 26.5 L 59.2 26.5 L 59.2 23.8 L 69.8 22 L 72.5 22 L 72.5 61 Q 72.5 63.023 72.762 64.195 A 5.166 5.166 0 0 0 72.9 64.7 A 2.172 2.172 0 0 0 74.119 66.022 A 3.579 3.579 0 0 0 74.8 66.25 Q 76.3 66.6 79.6 66.6 L 79.6 69.3 Z M 328.7 60.7 L 325.2 72.5 L 309.5 30.3 A 25.014 25.014 0 0 0 309.017 29.118 Q 308.529 28.011 308.061 27.31 A 6.3 6.3 0 0 0 307.95 27.15 Q 307.2 26.1 305.95 25.7 Q 304.756 25.318 302.694 25.301 A 23.503 23.503 0 0 0 302.5 25.3 L 302.5 22.6 L 321.7 22.6 L 321.7 25.3 L 318.2 25.3 Q 316.867 25.3 316.312 25.744 A 1.01 1.01 0 0 0 315.95 26.3 Q 315.7 27.3 316.2 28.7 L 327.4 60.7 L 328.7 60.7 Z M 192.3 67.8 A 12.471 12.471 0 0 0 196.718 67.055 Q 200.265 65.721 202.35 62 Q 205.6 56.2 205.6 45.9 Q 205.6 35.8 202.35 29.95 Q 199.445 24.721 193.703 24.166 A 14.585 14.585 0 0 0 192.3 24.1 Q 186.197 24.1 182.915 28.954 A 14.469 14.469 0 0 0 182.3 29.95 A 22.45 22.45 0 0 0 180.194 35.286 Q 179.522 37.839 179.229 40.878 A 52.263 52.263 0 0 0 179 45.9 A 52.212 52.212 0 0 0 179.322 51.898 Q 180.031 58.012 182.3 62 A 11.993 11.993 0 0 0 185.289 65.563 Q 187.727 67.477 191.125 67.753 A 14.484 14.484 0 0 0 192.3 67.8 Z M 69 11.9 Q 66.8 11.9 65.45 10.5 Q 64.1 9.1 64.1 7.1 A 5.857 5.857 0 0 1 64.331 5.415 A 4.633 4.633 0 0 1 65.45 3.5 A 4.511 4.511 0 0 1 68.237 2.145 A 6.256 6.256 0 0 1 69 2.1 A 5.82 5.82 0 0 1 70.318 2.243 A 4.504 4.504 0 0 1 71.6 2.75 Q 72.7 3.4 73.3 4.5 A 4.822 4.822 0 0 1 73.812 6.01 A 6.48 6.48 0 0 1 73.9 7.1 Q 73.8 9.1 72.5 10.5 A 4.303 4.303 0 0 1 69.888 11.838 A 6.108 6.108 0 0 1 69 11.9 Z M 264.8 30.3 L 264 30.3 L 264 29.3 L 264.8 29.3 L 264.8 30.3 Z" vector-effect="non-scaling-stroke"/></g></svg>